<svg width="19" height="20" viewBox="0 0 19 20" fill="none" xmlns="http://www.w3.org/2000/svg">
<path d="M17.375 7.75C17.4899 7.75003 17.6037 7.72742 17.7099 7.68345C17.8161 7.63949 17.9125 7.57504 17.9938 7.49378C18.075 7.41253 18.1395 7.31605 18.1835 7.20988C18.2274 7.10371 18.25 6.98991 18.25 6.875V4.25C18.2501 4.0664 18.1923 3.88744 18.085 3.73851C17.9776 3.58958 17.8261 3.47824 17.6519 3.42029L9.77686 0.795288C9.59713 0.735474 9.40287 0.735474 9.22314 0.795288L1.34814 3.42029C1.17393 3.47824 1.02239 3.58958 0.91503 3.73851C0.807665 3.88744 0.749925 4.0664 0.75 4.25V6.875C0.74997 6.98991 0.772582 7.10371 0.816545 7.20988C0.860507 7.31605 0.924958 7.41253 1.00622 7.49378C1.08747 7.57504 1.18394 7.63949 1.29012 7.68345C1.39629 7.72742 1.51009 7.75003 1.625 7.75H2.5V14.0362C1.98964 14.216 1.54744 14.5493 1.23411 14.9905C0.920773 15.4316 0.751665 15.9589 0.75 16.5V18.25C0.74997 18.3649 0.772582 18.4787 0.816545 18.5849C0.860507 18.6911 0.924958 18.7875 1.00622 18.8688C1.08747 18.95 1.18394 19.0145 1.29012 19.0585C1.39629 19.1024 1.51009 19.125 1.625 19.125H17.375C17.4899 19.125 17.6037 19.1024 17.7099 19.0585C17.8161 19.0145 17.9125 18.95 17.9938 18.8688C18.075 18.7875 18.1395 18.6911 18.1835 18.5849C18.2274 18.4787 18.25 18.3649 18.25 18.25V16.5C18.2483 15.9589 18.0792 15.4316 17.7659 14.9905C17.4526 14.5493 17.0104 14.216 16.5 14.0362V7.75H17.375ZM16.5 17.375H2.5V16.5C2.50023 16.268 2.59249 16.0456 2.75654 15.8815C2.92058 15.7175 3.14301 15.6252 3.375 15.625H15.625C15.857 15.6252 16.0794 15.7175 16.2435 15.8815C16.4075 16.0456 16.4998 16.268 16.5 16.5V17.375ZM4.25 13.875V7.75H6V13.875H4.25ZM7.75 13.875V7.75H11.25V13.875H7.75ZM13 13.875V7.75H14.75V13.875H13ZM2.5 6V4.88061L9.5 2.54699L16.5 4.88061V6H2.5Z" fill="white" fill-opacity="0.5"/>
</svg>
