<svg width="36" height="36" viewBox="0 0 36 36" fill="none" xmlns="http://www.w3.org/2000/svg">
<path fill-rule="evenodd" clip-rule="evenodd" d="M26.5689 9.43121C26.0606 8.92291 25.2365 8.92291 24.7282 9.43121L17.8255 16.3339L10.9227 9.43118C10.4144 8.92287 9.59031 8.92287 9.08201 9.43118C8.57371 9.93948 8.57371 10.7636 9.08201 11.2719L15.9848 18.1746L9.08205 25.0774C8.57375 25.5857 8.57375 26.4098 9.08205 26.9181C9.59035 27.4264 10.4145 27.4264 10.9228 26.9181L17.8255 20.0154L24.7281 26.918C25.2365 27.4263 26.0606 27.4263 26.5689 26.918C27.0772 26.4097 27.0772 25.5856 26.5689 25.0773L19.6662 18.1746L26.5689 11.2719C27.0772 10.7636 27.0772 9.93952 26.5689 9.43121Z" fill="white" fill-opacity="0.25"/>
</svg>
