<svg width="18" height="18" viewBox="0 0 18 18" fill="none" xmlns="http://www.w3.org/2000/svg">
<path d="M18 2.18649V15.8078C18.0003 16.3883 17.7702 16.9452 17.3603 17.3562C16.9503 17.7673 16.394 17.9988 15.8135 18H2.19249C1.61105 18 1.05343 17.769 0.642265 17.3579C0.231103 16.9468 7.56977e-05 16.3892 0 15.8078V2.18649C0.00128547 1.60595 0.232883 1.04965 0.643947 0.63971C1.05501 0.22977 1.61195 -0.000303604 2.19249 3.00689e-07H15.8135C16.3931 0.000906186 16.9488 0.231559 17.3586 0.64141C17.7685 1.05126 17.9991 1.60687 18 2.18649Z" fill="#2F2A00"/>
<path d="M10.2287 8.99986C10.2287 9.24262 10.1567 9.47992 10.0219 9.68177C9.887 9.88361 9.69531 10.0409 9.47103 10.1338C9.24675 10.2267 8.99997 10.251 8.76187 10.2037C8.52378 10.1563 8.30508 10.0394 8.13342 9.86776C7.96177 9.69611 7.84487 9.47741 7.79751 9.23932C7.75015 9.00122 7.77446 8.75443 7.86736 8.53016C7.96026 8.30588 8.11758 8.11418 8.31942 7.97932C8.52127 7.84445 8.75857 7.77246 9.00133 7.77246C9.32674 7.77284 9.63871 7.90227 9.86881 8.13238C10.0989 8.36248 10.2283 8.67445 10.2287 8.99986Z" fill="#FFE500"/>
<path d="M5.70132 4.26415C5.7016 4.50732 5.62973 4.7451 5.49481 4.9474C5.3599 5.14969 5.16799 5.30742 4.9434 5.4006C4.7188 5.49379 4.4716 5.51824 4.2331 5.47087C3.9946 5.42351 3.77551 5.30644 3.60357 5.1345C3.43163 4.96256 3.31456 4.74347 3.2672 4.50496C3.21983 4.26646 3.24428 4.01926 3.33747 3.79467C3.43065 3.57007 3.58837 3.37816 3.79067 3.24325C3.99297 3.10833 4.23075 3.03646 4.47391 3.03674C4.7993 3.0372 5.11123 3.16666 5.34132 3.39674C5.5714 3.62683 5.70086 3.93876 5.70132 4.26415Z" fill="#FFE500"/>
<path d="M14.8849 4.26415C14.8849 4.5069 14.8129 4.74421 14.678 4.94605C14.5431 5.1479 14.3514 5.30522 14.1272 5.39812C13.9029 5.49102 13.6561 5.51532 13.418 5.46796C13.1799 5.4206 12.9612 5.30371 12.7896 5.13205C12.6179 4.9604 12.501 4.74169 12.4536 4.5036C12.4063 4.26551 12.4306 4.01872 12.5235 3.79444C12.6164 3.57016 12.7737 3.37847 12.9756 3.2436C13.1774 3.10873 13.4147 3.03674 13.6575 3.03674C13.9829 3.03712 14.2949 3.16656 14.525 3.39666C14.7551 3.62676 14.8845 3.93874 14.8849 4.26415Z" fill="#FFE500"/>
<path d="M5.70132 13.6127C5.7016 13.8558 5.62973 14.0936 5.49481 14.2959C5.3599 14.4982 5.16799 14.6559 4.9434 14.7491C4.7188 14.8423 4.4716 14.8667 4.2331 14.8194C3.9946 14.772 3.77551 14.6549 3.60357 14.483C3.43163 14.3111 3.31456 14.092 3.2672 13.8535C3.21983 13.615 3.24428 13.3678 3.33747 13.1432C3.43065 12.9186 3.58837 12.7267 3.79067 12.5918C3.99297 12.4568 4.23075 12.385 4.47391 12.3853C4.79932 12.3856 5.1113 12.5151 5.3414 12.7452C5.5715 12.9753 5.70094 13.2872 5.70132 13.6127Z" fill="#FFE500"/>
<path d="M14.8849 13.6127C14.8849 13.8554 14.8129 14.0927 14.678 14.2946C14.5431 14.4964 14.3514 14.6537 14.1272 14.7466C13.9029 14.8395 13.6561 14.8638 13.418 14.8165C13.1799 14.7691 12.9612 14.6522 12.7896 14.4806C12.6179 14.3089 12.501 14.0902 12.4536 13.8521C12.4063 13.614 12.4306 13.3672 12.5235 13.1429C12.6164 12.9187 12.7737 12.727 12.9756 12.5921C13.1774 12.4572 13.4147 12.3853 13.6575 12.3853C13.983 12.3853 14.2952 12.5146 14.5254 12.7448C14.7556 12.9749 14.8849 13.2871 14.8849 13.6127Z" fill="#FFE500"/>
</svg>
