<svg width="26" height="26" viewBox="0 0 26 26" fill="none" xmlns="http://www.w3.org/2000/svg">
<path d="M18.0928 10.0749V23.4962C18.0931 24.0681 17.8664 24.6169 17.4625 25.0219C17.0586 25.4268 16.5104 25.655 15.9384 25.6562H2.51746C1.94457 25.6562 1.39513 25.4286 0.99001 25.0235C0.584886 24.6185 0.357252 24.0691 0.357178 23.4962V10.0749C0.358444 9.5029 0.58664 8.95477 0.991667 8.55085C1.39669 8.14693 1.94545 7.92023 2.51746 7.92053H15.9384C16.5095 7.92143 17.057 8.14869 17.4608 8.55252C17.8647 8.95635 18.0919 9.50381 18.0928 10.0749Z" fill="#FFE500"/>
<path d="M10.4357 16.7885C10.4357 17.0277 10.3648 17.2615 10.2319 17.4604C10.099 17.6592 9.91013 17.8143 9.68915 17.9058C9.46816 17.9973 9.225 18.0213 8.9904 17.9746C8.75581 17.9279 8.54032 17.8128 8.37119 17.6436C8.20205 17.4745 8.08687 17.259 8.04021 17.0244C7.99354 16.7898 8.01749 16.5467 8.10903 16.3257C8.20056 16.1047 8.35557 15.9158 8.55445 15.7829C8.75333 15.65 8.98715 15.5791 9.22634 15.5791C9.54697 15.5795 9.85437 15.707 10.0811 15.9337C10.3078 16.1605 10.4353 16.4678 10.4357 16.7885Z" fill="#2F2A00"/>
<path d="M5.97479 12.1222C5.97507 12.3618 5.90426 12.5961 5.77132 12.7954C5.63839 12.9948 5.4493 13.1502 5.228 13.242C5.0067 13.3338 4.76314 13.3579 4.52814 13.3112C4.29314 13.2645 4.07727 13.1492 3.90785 12.9798C3.73844 12.8104 3.62309 12.5945 3.57642 12.3595C3.52975 12.1245 3.55384 11.8809 3.64566 11.6596C3.73747 11.4383 3.89288 11.2492 4.09221 11.1163C4.29154 10.9834 4.52582 10.9126 4.76541 10.9128C5.08602 10.9133 5.39337 11.0408 5.62008 11.2676C5.84678 11.4943 5.97434 11.8016 5.97479 12.1222Z" fill="#2F2A00"/>
<path d="M15.0234 12.1222C15.0234 12.3614 14.9524 12.5952 14.8196 12.7941C14.6867 12.993 14.4978 13.148 14.2768 13.2395C14.0558 13.3311 13.8127 13.355 13.5781 13.3084C13.3435 13.2617 13.128 13.1465 12.9588 12.9774C12.7897 12.8082 12.6745 12.5928 12.6279 12.3582C12.5812 12.1236 12.6051 11.8804 12.6967 11.6594C12.7882 11.4384 12.9432 11.2495 13.1421 11.1167C13.341 10.9838 13.5748 10.9128 13.814 10.9128C14.1346 10.9132 14.442 11.0407 14.6687 11.2675C14.8955 11.4942 15.023 11.8016 15.0234 12.1222Z" fill="#2F2A00"/>
<path d="M5.97479 21.3334C5.97507 21.573 5.90426 21.8073 5.77132 22.0066C5.63839 22.2059 5.4493 22.3613 5.228 22.4532C5.0067 22.545 4.76314 22.5691 4.52814 22.5224C4.29314 22.4757 4.07727 22.3604 3.90785 22.191C3.73844 22.0215 3.62309 21.8057 3.57642 21.5707C3.52975 21.3357 3.55384 21.0921 3.64566 20.8708C3.73747 20.6495 3.89288 20.4604 4.09221 20.3275C4.29154 20.1946 4.52582 20.1237 4.76541 20.124C5.08604 20.1244 5.39344 20.2519 5.62016 20.4787C5.84688 20.7054 5.97442 21.0128 5.97479 21.3334Z" fill="#2F2A00"/>
<path d="M15.0234 21.3334C15.0234 21.5726 14.9524 21.8064 14.8196 22.0053C14.6867 22.2042 14.4978 22.3592 14.2768 22.4507C14.0558 22.5422 13.8127 22.5662 13.5781 22.5195C13.3435 22.4729 13.128 22.3577 12.9588 22.1886C12.7897 22.0194 12.6745 21.8039 12.6279 21.5693C12.5812 21.3347 12.6051 21.0916 12.6967 20.8706C12.7882 20.6496 12.9432 20.4607 13.1421 20.3278C13.341 20.195 13.5748 20.124 13.814 20.124C14.1347 20.124 14.4424 20.2514 14.6692 20.4782C14.896 20.705 15.0234 21.0127 15.0234 21.3334Z" fill="#2F2A00"/>
<path d="M25.6416 2.5262V15.9472C25.642 16.5192 25.4153 17.0679 25.0115 17.4729C24.6076 17.878 24.0595 18.1062 23.4875 18.1075H18.0928V10.075C18.092 9.50385 17.8647 8.9564 17.4609 8.55256C17.057 8.14873 16.5096 7.92147 15.9385 7.92058H7.90625V2.5262C7.90744 1.95422 8.13558 1.40608 8.54056 1.00216C8.94554 0.59823 9.49426 0.371527 10.0663 0.371826H23.4875C24.0586 0.372719 24.606 0.599993 25.0098 1.00383C25.4136 1.40767 25.6408 1.95513 25.6416 2.5262Z" fill="#E8D000"/>
<path d="M12.3134 3.36206C12.0744 3.36234 11.8407 3.43347 11.6421 3.56646C11.4434 3.69946 11.2886 3.88835 11.1973 4.10928C11.1059 4.33021 11.0821 4.57325 11.1288 4.80772C11.1755 5.04218 11.2906 5.25755 11.4597 5.4266C11.6287 5.59564 11.8441 5.7108 12.0786 5.75751C12.313 5.80422 12.5561 5.78038 12.777 5.68902C12.9979 5.59766 13.1868 5.44287 13.3198 5.24421C13.4528 5.04554 13.5239 4.81192 13.5242 4.57284C13.5244 4.41379 13.4932 4.25626 13.4324 4.10928C13.3717 3.9623 13.2825 3.82875 13.17 3.71628C13.0575 3.60381 12.924 3.51463 12.777 3.45385C12.63 3.39307 12.4725 3.36188 12.3134 3.36206Z" fill="#2F2A00"/>
<path d="M21.3624 5.78337C21.6015 5.78309 21.8352 5.71193 22.0339 5.57887C22.2326 5.44581 22.3874 5.25684 22.4787 5.03583C22.57 4.81482 22.5938 4.5717 22.547 4.3372C22.5001 4.1027 22.3848 3.88734 22.2157 3.71835C22.0465 3.54935 21.831 3.43431 21.5964 3.38776C21.3619 3.34121 21.1188 3.36524 20.8979 3.45682C20.677 3.54839 20.4882 3.7034 20.3553 3.90225C20.2225 4.1011 20.1516 4.33487 20.1516 4.574C20.1516 4.73293 20.1829 4.89031 20.2438 5.03713C20.3047 5.18395 20.3939 5.31733 20.5063 5.42965C20.6188 5.54197 20.7523 5.63102 20.8992 5.69172C21.046 5.75241 21.2035 5.78356 21.3624 5.78337Z" fill="#2F2A00"/>
<path d="M21.5483 14.9721C22.2083 14.8658 22.6572 14.2446 22.5509 13.5846C22.4445 12.9245 21.8233 12.4757 21.1633 12.582C20.5033 12.6883 20.0545 13.3096 20.1608 13.9696C20.2671 14.6296 20.8883 15.0784 21.5483 14.9721Z" fill="#2F2A00"/>
</svg>
