<svg width="17" height="17" viewBox="0 0 17 17" fill="none" xmlns="http://www.w3.org/2000/svg">
<path d="M11.4371 9.06208C12.2133 8.45144 12.7798 7.61406 13.0579 6.66645C13.3359 5.71884 13.3117 4.70812 12.9886 3.77491C12.6655 2.84169 12.0596 2.03239 11.2551 1.45959C10.4506 0.886791 9.48763 0.578979 8.50006 0.578979C7.51249 0.578979 6.54948 0.886791 5.745 1.45959C4.94052 2.03239 4.33458 2.84169 4.01148 3.77491C3.68837 4.70812 3.66417 5.71884 3.94224 6.66645C4.22032 7.61406 4.78683 8.45144 5.56297 9.06208C4.23304 9.5949 3.07262 10.4786 2.20543 11.6191C1.33824 12.7595 0.796796 14.1139 0.638808 15.5379C0.627372 15.6419 0.636526 15.7471 0.665745 15.8475C0.694965 15.9479 0.743678 16.0416 0.809105 16.1232C0.94124 16.288 1.13343 16.3936 1.34339 16.4167C1.55335 16.4398 1.76389 16.3785 1.92869 16.2464C2.09349 16.1142 2.19905 15.922 2.22214 15.7121C2.39598 14.1645 3.13389 12.7353 4.2949 11.6974C5.4559 10.6595 6.9586 10.0857 8.51589 10.0857C10.0732 10.0857 11.5759 10.6595 12.7369 11.6974C13.8979 12.7353 14.6358 14.1645 14.8096 15.7121C14.8312 15.9066 14.924 16.0863 15.0702 16.2164C15.2164 16.3465 15.4056 16.4179 15.6013 16.4167H15.6884C15.8959 16.3928 16.0856 16.2879 16.2161 16.1247C16.3466 15.9616 16.4073 15.7535 16.3851 15.5458C16.2263 14.1178 15.682 12.7599 14.8103 11.6177C13.9387 10.4755 12.7726 9.59208 11.4371 9.06208ZM8.50006 8.5C7.87375 8.5 7.26151 8.31428 6.74075 7.96632C6.22 7.61836 5.81412 7.12379 5.57444 6.54516C5.33476 5.96653 5.27205 5.32982 5.39424 4.71554C5.51642 4.10127 5.81802 3.53702 6.26089 3.09416C6.70375 2.65129 7.268 2.3497 7.88227 2.22751C8.49655 2.10532 9.13326 2.16803 9.71189 2.40771C10.2905 2.64739 10.7851 3.05327 11.133 3.57402C11.481 4.09478 11.6667 4.70702 11.6667 5.33333C11.6667 6.17318 11.3331 6.97864 10.7392 7.5725C10.1454 8.16637 9.33991 8.5 8.50006 8.5Z" fill="#FFE600"/>
</svg>
